<svg width="362" height="226" viewBox="0 -60 362 226" version="1.1" xmlns="http://www.w3.org/2000/svg" xmlns:xlink="http://www.w3.org/1999/xlink">
<title>Group</title>
<desc>Created using Figma</desc>
<g id="Canvas" transform="translate(0 -60)">
<g id="Group">
<g id="Rectangle">
<use xlink:href="#path0_fill" transform="translate(0 60)" fill="#FFFFFF"/>
</g>
<g id="Rectangle">
<use xlink:href="#path0_fill" transform="translate(168.792 60)" fill="#FFFFFF"/>
</g>
<g id="Rectangle">
<use xlink:href="#path1_fill" transform="matrix(0.984809 0.173642 -0.173654 0.984807 91.6835 60)" fill="#FFFFFF"/>
</g>
<g id="Rectangle">
<use xlink:href="#path2_fill" transform="matrix(0.984809 0.173642 -0.173654 0.984807 137.924 109.893)" fill="#FFFFFF"/>
</g>
<g id="Rectangle">
<use xlink:href="#path3_fill" transform="matrix(0.984809 -0.173642 0.173654 0.984807 90.2346 61.8434)" fill="#FFFFFF"/>
</g>
<g id="Rectangle">
<use xlink:href="#path4_fill" transform="matrix(0.984809 -0.173642 0.173654 0.984807 137.327 112.129)" fill="#FFFFFF"/>
</g>
<g id="Rectangle">
<use xlink:href="#path5_fill" transform="translate(16.9853 155.539)" fill="#FFFFFF"/>
</g>
<g id="Rectangle">
<use xlink:href="#path6_fill" transform="translate(0 60)" fill="#FFFFFF"/>
</g>
<g id="Rectangle">
<use xlink:href="#path7_fill" transform="translate(0 108)" fill="#FFFFFF"/>
</g>
<g id="Rectangle">
<use xlink:href="#path8_fill" transform="translate(242.041 60)" fill="#FFFFFF"/>
</g>
<g id="Rectangle">
<use xlink:href="#path8_fill" transform="translate(223.994 155.539)" fill="#FFFFFF"/>
</g>
<g id="Rectangle">
<use xlink:href="#path9_fill" transform="translate(169.853 155.539)" fill="#FFFFFF"/>
</g>
<g id="Rectangle">
<use xlink:href="#path10_fill" transform="translate(146.499 155.539)" fill="#FFFFFF"/>
</g>
<g id="Subtract">
<use xlink:href="#path11_fill" transform="translate(238.856 107.77)" fill="#FFFFFF"/>
</g>
<g id="Subtract">
<use xlink:href="#path12_fill" transform="matrix(-1 2.08159e-16 -2.08174e-16 -1 270.4 118.385)" fill="#FFFFFF"/>
</g>
<g id="Rectangle">
<use xlink:href="#path8_fill" transform="translate(320.598 60)" fill="#FFFFFF"/>
</g>
<g id="Subtract">
<use xlink:href="#path13_fill" transform="matrix(-1 2.08159e-16 -2.08174e-16 -1 348.958 118.385)" fill="#FFFFFF"/>
</g>
<g id="Subtract">
<use xlink:href="#path14_fill" transform="matrix(1 1.73472e-18 -1.73472e-18 1 24 60)" fill="#FFFFFF"/>
</g>
<g id="Rectangle">
<use xlink:href="#path8_fill" transform="translate(320.598 107.77)" fill="#FFFFFF"/>
</g>
<g id="Rectangle">
<use xlink:href="#path8_fill" transform="translate(321.66 155.539)" fill="#FFFFFF"/>
</g>
<g id="Subtract">
<use xlink:href="#path15_fill" transform="matrix(-1 2.08159e-16 -2.08174e-16 -1 348.958 166.155)" fill="#FFFFFF"/>
</g>
</g>
</g>
<defs>
<path id="path0_fill" d="M 0 5C 0 2.23857 2.23858 0 5 0L 5.61584 0C 8.37726 0 10.6158 2.23858 10.6158 5L 10.6158 101.155C 10.6158 103.916 8.37726 106.155 5.61584 106.155L 5 106.155C 2.23858 106.155 0 103.916 0 101.155L 0 5Z"/>
<path id="path1_fill" d="M 0 5C 0 2.23858 2.23858 0 5 0L 5.61582 0C 8.37725 0 10.6158 2.23858 10.6158 5L 10.6158 101.155C 10.6158 103.916 8.37725 106.155 5.61582 106.155L 5 106.155C 2.23858 106.155 0 103.916 0 101.155L 0 5Z"/>
<path id="path2_fill" d="M 0 5C 0 2.23858 2.23858 0 5 0L 5.61582 0C 8.37725 0 10.6158 2.23858 10.6158 5L 10.6158 110.679C 10.6158 113.44 8.37725 115.679 5.61582 115.679L 5 115.679C 2.23858 115.679 0 113.44 0 110.679L 0 5Z"/>
<path id="path3_fill" d="M 0 4.99999C 0 2.23857 2.23858 0 5 0L 5.61582 0C 8.37725 0 10.6158 2.23858 10.6158 5L 10.6158 161.689C 10.6158 164.451 8.37725 166.689 5.61582 166.689L 5 166.689C 2.23858 166.689 0 164.451 0 161.689L 0 4.99999Z"/>
<path id="path4_fill" d="M 0 5C 0 2.23858 2.23858 0 5 0L 5.61582 0C 8.37725 0 10.6158 2.23858 10.6158 5L 10.6158 50.0403C 10.6158 52.8017 8.37725 55.0403 5.61582 55.0403L 5 55.0403C 2.23858 55.0403 0 52.8017 0 50.0403L 0 5Z"/>
<path id="path5_fill" d="M 0 5C 0 2.23858 2.23858 0 5 0L 61.8798 0C 64.6412 0 66.8798 2.23858 66.8798 5L 66.8798 5.61545C 66.8798 8.37687 64.6412 10.6155 61.8798 10.6155L 5 10.6155C 2.23858 10.6155 0 8.37687 0 5.61545L 0 5Z"/>
<path id="path6_fill" d="M 0 5C 0 2.23858 2.23858 0 5 0L 48.0792 0C 50.8406 0 53.0792 2.23858 53.0792 5L 53.0792 5.61545C 53.0792 8.37687 50.8406 10.6155 48.0792 10.6155L 5 10.6155C 2.23858 10.6155 0 8.37687 0 5.61545L 0 5Z"/>
<path id="path7_fill" d="M 0 5C 0 2.23858 2.23858 0 5 0L 48.0792 0C 50.8406 0 53.0792 2.23858 53.0792 5L 53.0792 5.61545C 53.0792 8.37687 50.8406 10.6155 48.0792 10.6155L 5 10.6155C 2.23858 10.6155 0 8.37687 0 5.61545L 0 5Z"/>
<path id="path8_fill" d="M 0 5C 0 2.23858 2.23858 0 5 0L 35.3402 0C 38.1016 0 40.3402 2.23858 40.3402 5L 40.3402 5.61545C 40.3402 8.37687 38.1016 10.6155 35.3402 10.6155L 5 10.6155C 2.23858 10.6155 0 8.37687 0 5.61545L 0 5Z"/>
<path id="path9_fill" d="M 0 5C 0 2.23858 2.23858 0 5 0L 58.695 0C 61.4564 0 63.695 2.23858 63.695 5L 63.695 5.61545C 63.695 8.37687 61.4564 10.6155 58.695 10.6155L 5 10.6155C 2.23858 10.6155 0 8.37687 0 5.61545L 0 5Z"/>
<path id="path10_fill" d="M 0 5C 0 2.23858 2.23858 0 5 0L 13.0469 0C 15.8083 0 18.0469 2.23858 18.0469 5L 18.0469 5.61545C 18.0469 8.37687 15.8083 10.6155 13.0469 10.6155L 5 10.6155C 2.23858 10.6155 0 8.37687 0 5.61545L 0 5Z"/>
<path id="path11_fill" fill-rule="evenodd" d="M 6.36949 10.6155L 22.5206 10.6155L 23.0514 10.6155L 23.0514 10.6229C 33.0661 10.9038 41.0983 19.1102 41.0983 29.1925C 41.0983 39.2748 33.0661 47.4811 23.0514 47.7621L 23.0514 47.7695L 22.5206 47.7695L 0 47.7695C 5.35458 54.2529 13.455 58.385 22.5206 58.385C 38.6438 58.385 51.7142 45.3151 51.7142 29.1925C 51.7142 13.0699 38.6438 0 22.5206 0C 16.5483 0 10.9949 1.79331 6.36949 4.87081L 6.36949 10.6155Z"/>
<path id="path12_fill" fill-rule="evenodd" d="M 22.5206 58.385C 38.6438 58.385 51.7142 45.3151 51.7142 29.1925C 51.7142 13.0699 38.6438 3.35618e-15 22.5206 5.95251e-31C 16.5483 -1.24319e-15 10.9949 1.79332 6.36948 4.87082L 6.36948 10.6155L 22.5206 10.6155L 23.0514 10.6155L 23.0514 10.6229C 33.0661 10.9039 41.0983 19.1102 41.0983 29.1925C 41.0983 39.2748 33.0661 47.4811 23.0514 47.7621L 23.0514 47.7695L 22.5206 47.7695L 0 47.7695C 5.35458 54.2529 13.455 58.385 22.5206 58.385Z"/>
<path id="path13_fill" fill-rule="evenodd" d="M 22.5206 58.385C 38.6438 58.385 51.7142 45.3151 51.7142 29.1925C 51.7142 13.0699 38.6438 3.35618e-15 22.5206 5.95258e-31C 16.5483 -1.24319e-15 10.9949 1.7933 6.36951 4.8708L 6.36951 10.6155L 22.5206 10.6155L 23.0514 10.6155L 23.0514 10.6229C 33.0661 10.9039 41.0983 19.1102 41.0983 29.1925C 41.0983 39.2748 33.0661 47.4811 23.0514 47.7621L 23.0514 47.7695L 22.5206 47.7695L 0 47.7695C 5.35458 54.2529 13.455 58.385 22.5206 58.385Z"/>
<path id="path14_fill" fill-rule="evenodd" d="M 22.5206 58.385C 38.6438 58.385 51.7142 45.3151 51.7142 29.1925C 51.7142 13.0699 38.6438 3.35618e-15 22.5206 0C 16.5483 -1.24319e-15 10.9949 1.7933 6.36951 4.8708L 6.36951 10.6154L 22.5206 10.6154L 23.0514 10.6154L 23.0514 10.6229C 33.0661 10.9039 41.0983 19.1102 41.0983 29.1925C 41.0983 39.2748 33.0661 47.4811 23.0514 47.7621L 23.0514 47.7695L 22.5206 47.7695L 0 47.7695C 5.35458 54.2529 13.455 58.385 22.5206 58.385Z"/>
<path id="path15_fill" fill-rule="evenodd" d="M 22.5206 58.385C 38.6438 58.385 51.7142 45.3151 51.7142 29.1925C 51.7142 13.0699 38.6438 3.35618e-15 22.5206 5.95258e-31C 16.5483 -1.24319e-15 10.9949 1.7933 6.36951 4.8708L 6.36951 10.6154L 22.5206 10.6154L 23.0514 10.6154L 23.0514 10.6229C 33.0661 10.9039 41.0983 19.1102 41.0983 29.1925C 41.0983 39.2748 33.0661 47.4811 23.0514 47.7621L 23.0514 47.7695L 22.5206 47.7695L 0 47.7695C 5.35458 54.2529 13.455 58.385 22.5206 58.385Z"/>
</defs>
</svg>
